<svg width="70" height="70" viewBox="0 0 70 70" fill="none" xmlns="http://www.w3.org/2000/svg">
<path fill-rule="evenodd" clip-rule="evenodd" d="M70 5.83333V64.1667C70 67.3832 67.3832 70 64.1667 70H5.83333C2.61683 70 0 67.3832 0 64.1667V17.5C0 16.856 0.522667 16.3333 1.16667 16.3333C1.81067 16.3333 2.33333 16.856 2.33333 17.5V64.1667C2.33333 66.0963 3.90367 67.6667 5.83333 67.6667H64.1667C66.0963 67.6667 67.6667 66.0963 67.6667 64.1667V5.83333C67.6667 3.90367 66.0963 2.33333 64.1667 2.33333H5.83333C3.90367 2.33333 2.33333 3.90367 2.33333 5.83333V11.6667H64.1667C64.8118 11.6667 65.3333 12.1893 65.3333 12.8333C65.3333 13.4773 64.8118 14 64.1667 14H1.16667C0.522667 14 0 13.4773 0 12.8333V5.83333C0 2.61683 2.61683 0 5.83333 0H64.1667C67.3832 0 70 2.61683 70 5.83333ZM7 7C7 8.28683 8.0465 9.33333 9.33333 9.33333C10.6202 9.33333 11.6667 8.28683 11.6667 7C11.6667 5.71317 10.6202 4.66667 9.33333 4.66667C8.0465 4.66667 7 5.71317 7 7ZM14 7C14 8.28683 15.0465 9.33333 16.3333 9.33333C17.6202 9.33333 18.6667 8.28683 18.6667 7C18.6667 5.71317 17.6202 4.66667 16.3333 4.66667C15.0465 4.66667 14 5.71317 14 7ZM21 7C21 8.28683 22.0465 9.33333 23.3333 9.33333C24.6202 9.33333 25.6667 8.28683 25.6667 7C25.6667 5.71317 24.6202 4.66667 23.3333 4.66667C22.0465 4.66667 21 5.71317 21 7ZM17.5 18.6667H8.16667C7.52267 18.6667 7 19.1893 7 19.8333C7 20.4773 7.52267 21 8.16667 21H17.5C18.144 21 18.6667 20.4773 18.6667 19.8333C18.6667 19.1893 18.144 18.6667 17.5 18.6667ZM61.8333 21C62.4785 21 63 20.4773 63 19.8333C63 19.1893 62.4785 18.6667 61.8333 18.6667H57.1667C56.5215 18.6667 56 19.1893 56 19.8333C56 20.4773 56.5215 21 57.1667 21H61.8333ZM52.5 21C53.1452 21 53.6667 20.4773 53.6667 19.8333C53.6667 19.1893 53.1452 18.6667 52.5 18.6667H47.8333C47.1882 18.6667 46.6667 19.1893 46.6667 19.8333C46.6667 20.4773 47.1882 21 47.8333 21H52.5ZM43.1667 21C43.8118 21 44.3333 20.4773 44.3333 19.8333C44.3333 19.1893 43.8118 18.6667 43.1667 18.6667H38.5C37.8548 18.6667 37.3333 19.1893 37.3333 19.8333C37.3333 20.4773 37.8548 21 38.5 21H43.1667ZM24.5 65.3333C25.144 65.3333 25.6667 64.8107 25.6667 64.1667V57.1667C25.6667 56.5227 25.144 56 24.5 56H12.8333C12.1893 56 11.6667 56.5227 11.6667 57.1667V64.1667C11.6667 64.8107 12.1893 65.3333 12.8333 65.3333C13.4773 65.3333 14 64.8107 14 64.1667V58.3333H23.3333V64.1667C23.3333 64.8107 23.856 65.3333 24.5 65.3333ZM40.8333 65.3333C41.4785 65.3333 42 64.8107 42 64.1667V57.1667C42 56.5227 41.4785 56 40.8333 56H29.1667C28.5227 56 28 56.5227 28 57.1667V64.1667C28 64.8107 28.5227 65.3333 29.1667 65.3333C29.8107 65.3333 30.3333 64.8107 30.3333 64.1667V58.3333H39.6667V64.1667C39.6667 64.8107 40.1882 65.3333 40.8333 65.3333ZM57.1667 65.3333C57.8118 65.3333 58.3333 64.8107 58.3333 64.1667V57.1667C58.3333 56.5227 57.8118 56 57.1667 56H45.5C44.8548 56 44.3333 56.5227 44.3333 57.1667V64.1667C44.3333 64.8107 44.8548 65.3333 45.5 65.3333C46.1452 65.3333 46.6667 64.8107 46.6667 64.1667V58.3333H56V64.1667C56 64.8107 56.5215 65.3333 57.1667 65.3333ZM36.2017 50.1667C36.2017 49.5227 35.679 49 35.035 49H35.0233C34.3793 49 33.8625 49.5227 33.8625 50.1667C33.8625 50.8107 34.3898 51.3333 35.035 51.3333C35.679 51.3333 36.2017 50.8107 36.2017 50.1667ZM40.8683 50.1667C40.8683 49.5227 40.3457 49 39.7017 49H39.69C39.046 49 38.5292 49.5227 38.5292 50.1667C38.5292 50.8107 39.0577 51.3333 39.7017 51.3333C40.3457 51.3333 40.8683 50.8107 40.8683 50.1667ZM31.535 50.1667C31.535 49.5227 31.0123 49 30.3683 49H30.3567C29.7127 49 29.1958 49.5227 29.1958 50.1667C29.1958 50.8107 29.7243 51.3333 30.3683 51.3333C31.0123 51.3333 31.535 50.8107 31.535 50.1667Z" fill="white"/>
<path fill-rule="evenodd" clip-rule="evenodd" d="M11.6667 26.8333V45.5C11.6667 46.144 12.1893 46.6667 12.8333 46.6667H24.5C24.8092 46.6667 25.1055 46.5442 25.3248 46.3248L33.8333 37.8163L37.6752 41.6582C38.1313 42.1143 38.8687 42.1143 39.3248 41.6582L45.5 35.483L51.6752 41.6582C52.1313 42.1143 52.8687 42.1143 53.3248 41.6582C53.781 41.202 53.781 40.4647 53.3248 40.0085L46.3248 33.0085C45.8687 32.5523 45.1313 32.5523 44.6752 33.0085L38.5 39.1837L34.6582 35.3418C34.202 34.8857 33.4647 34.8857 33.0085 35.3418L24.017 44.3333H14V28H56V44.3333H31.5C30.856 44.3333 30.3333 44.856 30.3333 45.5C30.3333 46.144 30.856 46.6667 31.5 46.6667H57.1667C57.8118 46.6667 58.3333 46.144 58.3333 45.5V26.8333C58.3333 26.1893 57.8118 25.6667 57.1667 25.6667H12.8333C12.1893 25.6667 11.6667 26.1893 11.6667 26.8333ZM22.1667 30.3333C24.0963 30.3333 25.6667 31.9037 25.6667 33.8333C25.6667 35.763 24.0963 37.3333 22.1667 37.3333C20.237 37.3333 18.6667 35.763 18.6667 33.8333C18.6667 31.9037 20.237 30.3333 22.1667 30.3333ZM22.1667 32.6667C21.5238 32.6667 21 33.1905 21 33.8333C21 34.4762 21.5238 35 22.1667 35C22.8095 35 23.3333 34.4762 23.3333 33.8333C23.3333 33.1905 22.8095 32.6667 22.1667 32.6667Z" fill="#64FFDA"/>
</svg>
