<svg width="40" height="40" viewBox="0 0 40 40" fill="none" xmlns="http://www.w3.org/2000/svg">
<path fill-rule="evenodd" clip-rule="evenodd" d="M19.8246 40C30.9671 40 40 31.0457 40 20C40 8.95431 30.9671 0 19.8246 0C9.96903 0 1.76401 7.00518 0 16.2667H7.82215C9.42259 11.2054 14.191 7.53333 19.8246 7.53333C25.9656 7.53333 31.0786 11.8968 32.1807 17.6667H24.1339C23.3003 16.157 21.6831 15.1333 19.8246 15.1333C17.1132 15.1333 14.9152 17.3122 14.9152 20C14.9152 22.6878 17.1132 24.8667 19.8246 24.8667C21.6874 24.8667 23.308 23.8381 24.1398 22.3226H32.1827C31.0849 28.0978 25.9694 32.4667 19.8246 32.4667C14.2158 32.4667 9.46453 28.8268 7.84344 23.8H0.0128168C1.80342 33.0284 9.9927 40 19.8246 40Z" fill="white"/>
</svg>
