<svg width="100" height="100" viewBox="0 0 100 100" fill="none" xmlns="http://www.w3.org/2000/svg">
<path fill-rule="evenodd" clip-rule="evenodd" d="M49.5614 100C77.4179 100 100 77.6142 100 50C100 22.3858 77.4179 0 49.5614 0C24.9226 0 4.41002 17.5129 0 40.6667H19.5554C23.5565 28.0134 35.4775 18.8333 49.5614 18.8333C64.9141 18.8333 77.6966 29.7419 80.4517 44.1667H60.3348C58.2508 40.3926 54.2076 37.8333 49.5614 37.8333C42.783 37.8333 37.288 43.2805 37.288 50C37.288 56.7195 42.783 62.1667 49.5614 62.1667C54.2186 62.1667 58.27 59.5953 60.3495 55.8066H80.4568C77.7124 70.2446 64.9236 81.1667 49.5614 81.1667C35.5394 81.1667 23.6613 72.0671 19.6086 59.5H0.0320413C4.50854 82.5711 24.9817 100 49.5614 100Z" fill="white"/>
</svg>
