<svg width="70" height="70" viewBox="0 0 70 70" fill="none" xmlns="http://www.w3.org/2000/svg">
<path fill-rule="evenodd" clip-rule="evenodd" d="M9.69445 16.7778H20.5833C21.3347 16.7778 21.9445 16.168 21.9445 15.4167C21.9445 14.6653 21.3347 14.0555 20.5833 14.0555H9.69445C8.94312 14.0555 8.33334 14.6653 8.33334 15.4167C8.33334 16.168 8.94312 16.7778 9.69445 16.7778ZM9.69445 24.9444H34.1945C34.9458 24.9444 35.5556 24.3347 35.5556 23.5833C35.5556 22.832 34.9458 22.2222 34.1945 22.2222H9.69445C8.94312 22.2222 8.33334 22.832 8.33334 23.5833C8.33334 24.3347 8.94312 24.9444 9.69445 24.9444ZM31.4722 16.7778C32.2236 16.7778 32.8333 16.168 32.8333 15.4167C32.8333 14.6653 32.2236 14.0555 31.4722 14.0555H26.0278C25.2765 14.0555 24.6667 14.6653 24.6667 15.4167C24.6667 16.168 25.2765 16.7778 26.0278 16.7778H31.4722ZM9.69445 33.1111H13.7778C14.5291 33.1111 15.1389 32.5013 15.1389 31.75C15.1389 30.9987 14.5291 30.3889 13.7778 30.3889H9.69445C8.94312 30.3889 8.33334 30.9987 8.33334 31.75C8.33334 32.5013 8.94312 33.1111 9.69445 33.1111ZM34.1945 30.3889H20.5833C19.832 30.3889 19.2222 30.9987 19.2222 31.75C19.2222 32.5013 19.832 33.1111 20.5833 33.1111H34.1945C34.9458 33.1111 35.5556 32.5013 35.5556 31.75C35.5556 30.9987 34.9458 30.3889 34.1945 30.3889Z" fill="#64FFDA"/>
<path fill-rule="evenodd" clip-rule="evenodd" d="M70 3.5V8.16667C70 8.81067 69.4773 9.33333 68.8333 9.33333H67.6667V36.1667C67.6667 36.8107 67.144 37.3333 66.5 37.3333C65.856 37.3333 65.3333 36.8107 65.3333 36.1667V8.16667C65.3333 7.52267 65.856 7 66.5 7H67.6667V4.66667H2.33333V7H61.8333C62.4773 7 63 7.52267 63 8.16667C63 8.81067 62.4773 9.33333 61.8333 9.33333H1.16667C0.522667 9.33333 0 8.81067 0 8.16667V3.5C0 2.856 0.522667 2.33333 1.16667 2.33333H33.8333V1.16667C33.8333 0.522667 34.356 0 35 0C35.644 0 36.1667 0.522667 36.1667 1.16667V2.33333H68.8333C69.4773 2.33333 70 2.856 70 3.5ZM58.3333 37.3631V39.6964C62.2807 39.8129 64.9857 40.5767 66.3822 41.9708C67.2467 42.833 67.6667 43.988 67.6667 45.5V64.1667C67.6667 64.8107 68.1893 65.3333 68.8333 65.3333C69.4773 65.3333 70 64.8107 70 64.1667V45.5C70 43.3662 69.3373 41.6232 68.0307 40.32C66.1704 38.4619 62.9916 37.4913 58.3333 37.3631ZM25.6667 44.3333V39.6667H58.3333V37.3333H15.1667C14.5227 37.3333 14 37.856 14 38.5C14 41.4307 16.7288 46.6667 22.1667 46.6667H37.4442L39.6725 68.95C39.7332 69.5508 40.2395 70 40.8322 70C40.8707 70 40.9103 69.9977 40.95 69.9942C41.5905 69.93 42.0583 69.3583 41.9942 68.7167L39.6608 45.3833C39.6013 44.7872 39.0997 44.3333 38.5 44.3333H25.6667ZM23.3333 39.6667H16.5352C17.1057 41.5742 18.9023 44.3333 22.1667 44.3333H23.3333V39.6667ZM60.6667 18.6667V18.9805C61.3632 19.3842 61.8333 20.1378 61.8333 21V23.3333C61.8333 24.213 61.3433 24.9818 60.6212 25.3785C60.3995 27.6208 59.4242 29.5948 59.3775 29.6882C58.3193 31.8033 56.7201 35 51.3333 35C45.9457 35 44.3473 31.8033 43.2903 29.6882C43.2425 29.5948 42.2672 27.6208 42.0455 25.3785C41.3233 24.9818 40.8333 24.213 40.8333 23.3333V21C40.8333 20.1378 41.3035 19.3842 42 18.9805V18.6667C42 14.8062 45.1395 11.6667 49 11.6667H53.6667C57.5272 11.6667 60.6667 14.8062 60.6667 18.6667ZM59.5 21C58.856 21 58.3333 20.4773 58.3333 19.8333V18.6667C58.3333 16.093 56.2403 14 53.6667 14H49C46.4263 14 44.3333 16.093 44.3333 18.6667V19.8333C44.3333 20.4773 43.8107 21 43.1667 21V23.3333C43.8107 23.3333 44.3333 23.856 44.3333 24.5C44.3333 26.5183 45.367 28.6253 45.3775 28.6463C46.592 31.0742 47.663 32.6667 51.3333 32.6667C55.0037 32.6667 56.0747 31.0742 57.2892 28.6452C57.2997 28.6253 58.3333 26.5183 58.3333 24.5C58.3333 23.856 58.856 23.3333 59.5 23.3333V21ZM54.8333 21H53.6667C53.0227 21 52.5 21.5227 52.5 22.1667C52.5 22.8107 53.0227 23.3333 53.6667 23.3333H54.8333C55.4773 23.3333 56 22.8107 56 22.1667C56 21.5227 55.4773 21 54.8333 21ZM49 21H47.8333C47.1893 21 46.6667 21.5227 46.6667 22.1667C46.6667 22.8107 47.1893 23.3333 47.8333 23.3333H49C49.644 23.3333 50.1667 22.8107 50.1667 22.1667C50.1667 21.5227 49.644 21 49 21ZM61.8333 51.3333C61.1893 51.3333 60.6667 51.856 60.6667 52.5V68.8333C60.6667 69.4773 61.1893 70 61.8333 70C62.4773 70 63 69.4773 63 68.8333V52.5C63 51.856 62.4773 51.3333 61.8333 51.3333ZM35 51.3333H8.16667C6.17167 51.3333 4.66667 49.8283 4.66667 47.8333V12.8333C4.66667 12.1893 4.144 11.6667 3.5 11.6667C2.856 11.6667 2.33333 12.1893 2.33333 12.8333V47.8333C2.33333 51.1047 4.89533 53.6667 8.16667 53.6667H35C35.644 53.6667 36.1667 53.144 36.1667 52.5C36.1667 51.856 35.644 51.3333 35 51.3333Z" fill="white"/>
</svg>
