<svg width="60" height="60" viewBox="0 0 60 60" fill="none" xmlns="http://www.w3.org/2000/svg">
<path fill-rule="evenodd" clip-rule="evenodd" d="M3 51.982C3.552 51.982 4 51.534 4 50.982V20.982C4 19.524 5.542 17.982 7 17.982H19C19.552 17.982 20 17.534 20 16.982C20 16.43 19.552 15.982 19 15.982H7C4.43 15.982 2 18.412 2 20.982V50.982C2 51.534 2.448 51.982 3 51.982ZM59 49.982H58V20.982C58 18.412 55.57 15.982 53 15.982H41C40.448 15.982 40 16.43 40 16.982C40 17.534 40.448 17.982 41 17.982H53C54.458 17.982 56 19.524 56 20.982V50.982C56 51.534 56.448 51.982 57 51.982H58V54.982C58 56.44 56.458 57.982 55 57.982H5C3.877 57.982 2.705 57.068 2.225 55.982H55C55.552 55.982 56 55.534 56 54.982C56 54.43 55.552 53.982 55 53.982H1C0.448 53.982 0 54.43 0 54.982C0 57.552 2.43 59.982 5 59.982H55C57.57 59.982 60 57.552 60 54.982V50.982C60 50.43 59.552 49.982 59 49.982ZM19 21.982H10C9.357 21.982 8.117 22.681 7.994 23.033L8 49.982H52V22.982C52 22.533 51.449 21.982 51 21.982H41C40.448 21.982 40 21.534 40 20.982C40 20.43 40.448 19.982 41 19.982H51C52.542 19.982 54 21.44 54 22.982V50.982C54 51.534 53.552 51.982 53 51.982H7C6.448 51.982 6 51.534 6 50.982V22.982C6 21.249 8.631 19.982 10 19.982H19C19.552 19.982 20 20.43 20 20.982C20 21.534 19.552 21.982 19 21.982Z" fill="white"/>
<path fill-rule="evenodd" clip-rule="evenodd" d="M22 39.982C20.464 39.982 19.095 40.878 18.433 42.2C17.966 42.056 17.483 41.982 17 41.982C14.243 41.982 12 44.225 12 46.982C12 47.534 12.448 47.982 13 47.982C13.552 47.982 14 47.534 14 46.982C14 45.328 15.346 43.982 17 43.982C17.53 43.982 18.045 44.129 18.53 44.419C18.818 44.591 19.172 44.607 19.474 44.462C19.776 44.318 19.986 44.032 20.033 43.7C20.172 42.721 21.018 41.982 22 41.982C23.033 41.982 23.883 42.765 23.977 43.802C24.015 44.227 24.318 44.58 24.731 44.683C25.145 44.786 25.578 44.616 25.811 44.258C26.739 42.833 28.306 41.982 30 41.982C31.694 41.982 33.261 42.833 34.189 44.258C34.422 44.616 34.856 44.786 35.269 44.683C35.682 44.58 35.985 44.227 36.023 43.802C36.117 42.765 36.967 41.982 38 41.982C38.982 41.982 39.828 42.721 39.967 43.7C40.014 44.032 40.224 44.318 40.526 44.462C40.829 44.607 41.183 44.591 41.47 44.419C41.955 44.129 42.47 43.982 43 43.982C44.654 43.982 46 45.328 46 46.982C46 47.534 46.448 47.982 47 47.982C47.552 47.982 48 47.534 48 46.982C48 44.225 45.757 41.982 43 41.982C42.517 41.982 42.034 42.056 41.567 42.2C40.905 40.878 39.536 39.982 38 39.982C36.61 39.982 35.386 40.684 34.672 41.771C33.404 40.63 31.751 39.982 30 39.982C28.249 39.982 26.596 40.63 25.328 41.771C24.614 40.684 23.39 39.982 22 39.982ZM18 34.982C18 35.534 18.448 35.982 19 35.982H22V36.982C22 37.534 22.448 37.982 23 37.982C23.552 37.982 24 37.534 24 36.982V35.982H26C26.552 35.982 27 35.534 27 34.982C27 34.43 26.552 33.982 26 33.982H20V32.982C20 30.035 21.009 28.8 22.077 27.492C23.022 26.334 24 25.136 24 22.982V12.982C24 9.491 25.643 7.756 25.768 7.622L30 2.544L34.288 7.684C34.357 7.756 36 9.491 36 12.982V22.982C36 25.136 36.978 26.334 37.923 27.492C38.991 28.8 40 30.035 40 32.982V33.982H34C33.448 33.982 33 34.43 33 34.982C33 35.534 33.448 35.982 34 35.982H36V36.982C36 37.534 36.448 37.982 37 37.982C37.552 37.982 38 37.534 38 36.982V35.982H41C41.552 35.982 42 35.534 42 34.982V32.982C42 29.322 40.599 27.606 39.473 26.227C38.618 25.18 38 24.423 38 22.982V12.982C38 8.618 35.801 6.369 35.768 6.342L30.768 0.342C30.388 -0.114 29.612 -0.114 29.232 0.342L24.293 6.275C24.199 6.369 22 8.618 22 12.982V22.982C22 24.423 21.382 25.18 20.527 26.227C19.401 27.606 18 29.322 18 32.982V34.982ZM29 28.982V36.982C29 37.534 29.448 37.982 30 37.982C30.552 37.982 31 37.534 31 36.982V28.982C31 28.43 30.552 27.982 30 27.982C29.448 27.982 29 28.43 29 28.982ZM32 15.982C32 14.879 31.103 13.982 30 13.982C28.897 13.982 28 14.879 28 15.982C28 17.085 28.897 17.982 30 17.982C31.103 17.982 32 17.085 32 15.982ZM30 19.982C27.794 19.982 26 18.188 26 15.982C26 13.776 27.794 11.982 30 11.982C32.206 11.982 34 13.776 34 15.982C34 18.188 32.206 19.982 30 19.982Z" fill="#64FFDA"/>
</svg>
