<svg width="60" height="60" viewBox="0 0 60 60" fill="none" xmlns="http://www.w3.org/2000/svg">
<path fill-rule="evenodd" clip-rule="evenodd" d="M0 31V5C0 2.43 2.43 0 5 0H11C11.552 0 12 0.448 12 1C12 1.552 11.552 2 11 2H5C3.542 2 2 3.542 2 5V31C2 31.552 1.552 32 1 32C0.448 32 0 31.552 0 31ZM55 0H45C44.448 0 44 0.448 44 1C44 1.552 44.448 2 45 2H55C56.458 2 58 3.542 58 5V41C58 42.458 56.458 44 55 44H5C3.542 44 2 42.458 2 41V36H55C55.552 36 56 35.552 56 35C56 34.448 55.552 34 55 34H1C0.448 34 0 34.448 0 35V41C0 43.57 2.43 46 5 46H55C57.57 46 60 43.57 60 41V5C60 2.43 57.57 0 55 0ZM28 40C28 41.103 28.897 42 30 42C31.103 42 32 41.103 32 40C32 38.897 31.103 38 30 38C28.897 38 28 38.897 28 40ZM41 58H40V57C40 56.448 39.552 56 39 56C38.448 56 38 56.448 38 57V58H36V57C36 56.448 35.552 56 35 56C34.448 56 34 56.448 34 57V58H32V57C32 56.448 31.552 56 31 56C30.448 56 30 56.448 30 57V58H28V57C28 56.448 27.552 56 27 56C26.448 56 26 56.448 26 57V58H24V57C24 56.448 23.552 56 23 56C22.448 56 22 56.448 22 57V58H20V57C20 56.448 19.552 56 19 56C18.448 56 18 56.448 18 57V58H16V57C16 56.448 15.552 56 15 56C14.448 56 14 56.448 14 57V58H12V57C12 56.448 11.552 56 11 56C10.448 56 10 56.448 10 57V58H8V57C8 56.448 7.552 56 7 56C6.448 56 6 56.448 6 57V58H5C4.448 58 4 58.448 4 59C4 59.552 4.448 60 5 60H41C41.552 60 42 59.552 42 59C42 58.448 41.552 58 41 58ZM26 53V49C26 48.448 25.552 48 25 48C24.448 48 24 48.448 24 49V53C24 53.552 24.448 54 25 54C25.552 54 26 53.552 26 53ZM35 54C35.552 54 36 53.552 36 53V49C36 48.448 35.552 48 35 48C34.448 48 34 48.448 34 49V53C34 53.552 34.448 54 35 54ZM56 58V59C56 59.552 55.552 60 55 60H47C46.448 60 46 59.552 46 59V58C46 55.794 47.794 54 50 54H52C54.206 54 56 55.794 56 58ZM54 58C54 56.897 53.103 56 52 56H50C48.897 56 48 56.897 48 58H54Z" fill="white"/>
<path fill-rule="evenodd" clip-rule="evenodd" d="M35 32C35.552 32 36 31.552 36 31V9.287L40 2.887L43.196 8H39C38.448 8 38 8.448 38 9C38 9.552 38.448 10 39 10H45C45.364 10 45.698 9.803 45.875 9.485C46.051 9.167 46.041 8.778 45.848 8.47L40.848 0.47C40.482 -0.115 39.518 -0.115 39.152 0.47L34.152 8.47C34.053 8.629 34 8.812 34 9V31C34 31.552 34.448 32 35 32ZM15 32H21C21.552 32 22 31.552 22 31C22 30.448 21.552 30 21 30H16V28H17C17.552 28 18 27.552 18 27C18 26.448 17.552 26 17 26H16V24H17C17.552 24 18 23.552 18 23C18 22.448 17.552 22 17 22H16V20H21C21.552 20 22 19.552 22 19C22 18.448 21.552 18 21 18H16V16H17C17.552 16 18 15.552 18 15C18 14.448 17.552 14 17 14H16V12H17C17.552 12 18 11.552 18 11C18 10.448 17.552 10 17 10H16V8H21C21.552 8 22 7.552 22 7C22 6.448 21.552 6 21 6H16V2H30V31C30 31.552 30.448 32 31 32C31.552 32 32 31.552 32 31V1C32 0.448 31.552 0 31 0H15C14.448 0 14 0.448 14 1V31C14 31.552 14.448 32 15 32ZM45 12C44.448 12 44 12.448 44 13V31C44 31.552 44.448 32 45 32C45.552 32 46 31.552 46 31V13C46 12.448 45.552 12 45 12ZM39 13V31C39 31.552 39.448 32 40 32C40.552 32 41 31.552 41 31V13C41 12.448 40.552 12 40 12C39.448 12 39 12.448 39 13Z" fill="#64FFDA"/>
</svg>
