<svg width="60" height="60" viewBox="0 0 60 60" fill="none" xmlns="http://www.w3.org/2000/svg">
<g clip-path="url(#clip0)">
<path fill-rule="evenodd" clip-rule="evenodd" d="M42 24.0024C42 14.0774 33.925 6.00238 24 6.00238C14.075 6.00238 6 14.0774 6 24.0024C6 33.9274 14.075 42.0024 24 42.0024C33.925 42.0024 42 33.9274 42 24.0024ZM44 24.0024C44 35.0304 35.028 44.0024 24 44.0024C12.972 44.0024 4 35.0304 4 24.0024C4 12.9744 12.972 4.00238 24 4.00238C35.028 4.00238 44 12.9744 44 24.0024ZM46 24.0024C46 11.8714 36.131 2.00238 24 2.00238C11.869 2.00238 2 11.8714 2 24.0024C2 36.1334 11.869 46.0024 24 46.0024C36.131 46.0024 46 36.1334 46 24.0024ZM24 48.0024C10.767 48.0024 0 37.2354 0 24.0024C0 10.7694 10.767 0.00238037 24 0.00238037C37.233 0.00238037 48 10.7694 48 24.0024C48 37.2354 37.233 48.0024 24 48.0024ZM45.271 39.6174C44.881 40.0074 44.881 40.6414 45.271 41.0314L47.393 43.1534C47.588 43.3494 47.844 43.4464 48.1 43.4464C48.355 43.4464 48.611 43.3494 48.807 43.1534C49.197 42.7634 49.197 42.1304 48.807 41.7394L46.686 39.6174C46.295 39.2274 45.662 39.2274 45.271 39.6174ZM60 55.0024C60 56.3384 59.479 57.5934 58.535 58.5384C57.561 59.5124 56.279 60.0004 54.999 60.0004C53.719 60.0004 52.439 59.5134 51.465 58.5384L39.615 46.6894C39.225 46.2984 39.225 45.6654 39.615 45.2744C40.006 44.8844 40.639 44.8844 41.029 45.2744L52.879 57.1244C54.05 58.2944 55.952 58.2924 57.121 57.1234C57.687 56.5574 58 55.8034 58 55.0024C58 54.2014 57.687 53.4484 57.121 52.8814L50.822 46.5834L48.709 48.7074C48.32 49.1004 47.688 49.1014 47.295 48.7114C46.903 48.3214 46.901 47.6894 47.291 47.2974L50.111 44.4614C50.299 44.2734 50.554 44.1674 50.819 44.1674C51.085 44.1674 51.34 44.2724 51.527 44.4604L58.535 51.4674C59.479 52.4114 60 53.6674 60 55.0024Z" fill="white"/>
<path fill-rule="evenodd" clip-rule="evenodd" d="M35 26.0024H23C22.447 26.0024 22 26.4504 22 27.0024C22 27.5544 22.447 28.0024 23 28.0024H35C35.553 28.0024 36 27.5544 36 27.0024C36 26.4504 35.553 26.0024 35 26.0024ZM35 20.0024H31C30.447 20.0024 30 20.4504 30 21.0024C30 21.5544 30.447 22.0024 31 22.0024H35C35.553 22.0024 36 21.5544 36 21.0024C36 20.4504 35.553 20.0024 35 20.0024ZM31 32.0024H27C26.447 32.0024 26 32.4504 26 33.0024C26 33.5544 26.447 34.0024 27 34.0024H31C31.553 34.0024 32 33.5544 32 33.0024C32 32.4504 31.553 32.0024 31 32.0024ZM23 32.0024H15C14.447 32.0024 14 32.4504 14 33.0024C14 33.5544 14.447 34.0024 15 34.0024H23C23.553 34.0024 24 33.5544 24 33.0024C24 32.4504 23.553 32.0024 23 32.0024ZM20 27.0024C20 26.4504 19.553 26.0024 19 26.0024H13C12.447 26.0024 12 26.4504 12 27.0024C12 27.5544 12.447 28.0024 13 28.0024H19C19.553 28.0024 20 27.5544 20 27.0024ZM13 22.0024H27C27.553 22.0024 28 21.5544 28 21.0024C28 20.4504 27.553 20.0024 27 20.0024H13C12.447 20.0024 12 20.4504 12 21.0024C12 21.5544 12.447 22.0024 13 22.0024ZM17 16.0024H29C29.553 16.0024 30 15.5544 30 15.0024C30 14.4504 29.553 14.0024 29 14.0024H17C16.447 14.0024 16 14.4504 16 15.0024C16 15.5544 16.447 16.0024 17 16.0024Z" fill="#64FFDA"/>
</g>
<defs>
<clipPath id="clip0">
<rect width="60" height="60" fill="white"/>
</clipPath>
</defs>
</svg>
