<svg width="70" height="70" viewBox="0 0 70 70" fill="none" xmlns="http://www.w3.org/2000/svg">
<g clip-path="url(#clip0)">
<path fill-rule="evenodd" clip-rule="evenodd" d="M12.7318 29.9064L8.6905 32.2397C8.13283 32.5617 7.9415 33.2757 8.2635 33.8333C8.47933 34.2078 8.87133 34.4167 9.275 34.4167C9.47333 34.4167 9.674 34.3665 9.85717 34.2604L13.8985 31.927C14.4573 31.605 14.6475 30.891 14.3255 30.3333C14.0023 29.7757 13.2895 29.5832 12.7318 29.9064ZM13.8985 5.40635L9.85717 3.07301C9.29833 2.74985 8.5855 2.94235 8.2635 3.50001C7.9415 4.05768 8.13283 4.77168 8.6905 5.09368L12.7318 7.42701C12.915 7.53318 13.1168 7.58335 13.314 7.58335C13.7177 7.58335 14.1097 7.37451 14.3255 7.00001C14.6475 6.44235 14.4573 5.72835 13.8985 5.40635ZM60.375 32.2397L56.3337 29.9064C55.7748 29.5832 55.062 29.7757 54.74 30.3333C54.418 30.891 54.6093 31.605 55.167 31.927L59.2083 34.2604C59.3915 34.3665 59.5933 34.4167 59.7905 34.4167C60.1942 34.4167 60.5862 34.2078 60.802 33.8333C61.124 33.2757 60.9327 32.5617 60.375 32.2397ZM55.7515 7.58335C55.9487 7.58335 56.1493 7.53318 56.3337 7.42701L60.3762 5.09368C60.9338 4.77168 61.1252 4.05885 60.8032 3.50001C60.4812 2.94235 59.7683 2.74985 59.2095 3.07301L55.167 5.40635C54.6093 5.72835 54.418 6.44235 54.74 7.00001C54.9558 7.37451 55.3478 7.58335 55.7515 7.58335ZM63.7 17.5H59.0333C58.3882 17.5 57.8667 18.0227 57.8667 18.6667C57.8667 19.3107 58.3882 19.8333 59.0333 19.8333H63.7C64.344 19.8333 64.8667 19.3107 64.8667 18.6667C64.8667 18.0227 64.344 17.5 63.7 17.5ZM11.2 18.6667C11.2 18.0227 10.6773 17.5 10.0333 17.5H5.36667C4.7215 17.5 4.2 18.0227 4.2 18.6667C4.2 19.3107 4.7215 19.8333 5.36667 19.8333H10.0333C10.6773 19.8333 11.2 19.3107 11.2 18.6667ZM39.2 50.1667C39.2 49.5227 38.6773 49 38.0333 49H31.0333C30.3882 49 29.8667 49.5227 29.8667 50.1667C29.8667 50.8107 30.3882 51.3334 31.0333 51.3334H38.0333C38.6773 51.3334 39.2 50.8107 39.2 50.1667ZM40.3667 46.6667C41.0107 46.6667 41.5333 46.144 41.5333 45.5C41.5333 44.856 41.0107 44.3334 40.3667 44.3334H28.7C28.0548 44.3334 27.5333 44.856 27.5333 45.5C27.5333 46.144 28.0548 46.6667 28.7 46.6667H40.3667ZM49.7 56H47.3667C47.3398 56 44.3065 56.042 42.3582 57.9915C40.3888 59.9608 40.3667 62.9697 40.3667 63V65.3334H42.6965C42.77 65.3322 45.773 65.2774 47.7073 63.3419C49.6767 61.3737 49.7 58.3637 49.7 58.3334V56ZM52.0333 54.8334V58.3334C52.0333 58.4967 52.003 62.3478 49.3582 64.9915C46.7133 67.6363 42.8622 67.6667 42.7 67.6667H39.2C38.5548 67.6667 38.0333 67.144 38.0333 66.5V63C38.0333 62.8379 38.0625 58.9867 40.7073 56.3419C43.3522 53.697 47.2033 53.6667 47.3667 53.6667H50.8667C51.5107 53.6667 52.0333 54.1894 52.0333 54.8334ZM28.7 63C28.7 62.9732 28.6568 59.941 26.7073 57.9915C24.7392 56.0233 21.7292 56 21.7 56H19.3667V58.3334C19.3667 58.3602 19.4087 61.3924 21.3582 63.3419C23.3263 65.3112 26.3363 65.3334 26.3667 65.3334H28.7V63ZM28.3582 56.3419C31.003 58.9867 31.0333 62.8379 31.0333 63V66.5C31.0333 67.144 30.5107 67.6667 29.8667 67.6667H26.3667C26.2033 67.6667 22.3522 67.6363 19.7073 64.9915C17.0625 62.3478 17.0333 58.4967 17.0333 58.3334V54.8334C17.0333 54.1894 17.5548 53.6667 18.2 53.6667H21.7C21.8622 53.6667 25.7133 53.697 28.3582 56.3419ZM35.7 54.8334V68.8334C35.7 69.4774 35.1773 70 34.5333 70C33.8882 70 33.3667 69.4774 33.3667 68.8334V54.8334C33.3667 54.1894 33.8882 53.6667 34.5333 53.6667C35.1773 53.6667 35.7 54.1894 35.7 54.8334Z" fill="white"/>
<path fill-rule="evenodd" clip-rule="evenodd" d="M50.8667 18.6667C50.8667 9.66 43.5388 2.33333 34.5333 2.33333C25.5267 2.33333 18.2 9.66 18.2 18.6667C18.2 22.47 20.4995 25.8545 22.7232 29.1282C24.3122 31.4662 25.8125 33.6735 26.3352 35.9007L27.2767 39.6667H41.7888L42.7338 35.8843C43.253 33.6735 44.7533 31.4662 46.3423 29.1282C48.566 25.8545 50.8667 22.47 50.8667 18.6667ZM53.2 18.6667C53.2 23.1875 50.5808 27.0398 48.2708 30.4395C46.8078 32.5932 45.4253 34.6278 45.0018 36.4338L43.8317 41.1168C43.701 41.636 43.2355 42 42.7 42H26.3667C25.8312 42 25.3645 41.636 25.2338 41.1168L24.0672 36.4502C23.6402 34.6278 22.2577 32.5932 20.7947 30.4395C18.4847 27.0398 15.8667 23.1875 15.8667 18.6667C15.8667 8.37433 24.2398 0 34.5333 0C44.8257 0 53.2 8.37433 53.2 18.6667Z" fill="#64FFDA"/>
<path d="M39.7192 18.8627C40.1147 18.6013 40.6292 18.6037 41.0223 18.8697C41.4143 19.1368 41.6068 19.614 41.5077 20.0783L38.0077 36.4117C37.8898 36.9588 37.4057 37.3333 36.8667 37.3333C36.7862 37.3333 36.7045 37.3252 36.6217 37.3077C35.9917 37.1735 35.5903 36.5528 35.7245 35.9228L38.6808 22.1293C37.422 22.743 35.8645 23.3333 34.5333 23.3333C33.201 23.3333 31.6435 22.743 30.3847 22.1293L33.341 35.9228C33.4752 36.5528 33.0738 37.1735 32.4438 37.3077C31.8162 37.4418 31.1932 37.0417 31.0578 36.4117L27.5578 20.0783C27.4598 19.614 27.6512 19.1368 28.0432 18.8697C28.4375 18.6037 28.952 18.6013 29.3463 18.8627C30.24 19.4565 32.9152 21 34.5333 21C36.1503 21 38.8255 19.4565 39.7192 18.8627Z" fill="#64FFDA"/>
<path d="M44.9248 13.3595C44.632 12.7855 44.8583 12.0831 45.4323 11.7891C46.0075 11.4975 46.7087 11.7238 47.0027 12.2966C47.4215 13.1168 47.761 13.9813 48.0107 14.8668C48.1857 15.4875 47.824 16.1315 47.2033 16.3053C47.0983 16.3356 46.9922 16.3496 46.8872 16.3496C46.3773 16.3496 45.9095 16.0136 45.7648 15.4991C45.5572 14.763 45.2748 14.042 44.9248 13.3595Z" fill="white"/>
<path d="M36.0558 4.74948C36.8282 4.83231 37.5982 4.98165 38.3448 5.19282C40.2383 5.72715 41.9697 6.64065 43.4887 7.90648C43.9833 8.31948 44.0498 9.05448 43.638 9.54915C43.407 9.82682 43.0757 9.96915 42.7408 9.96915C42.4783 9.96915 42.2135 9.88048 41.9953 9.69848C40.7295 8.64382 39.2875 7.88315 37.7102 7.43865C37.0883 7.26248 36.4478 7.13882 35.8038 7.06882C35.1633 6.99882 34.7002 6.42365 34.7702 5.78315C34.839 5.14265 35.42 4.67831 36.0558 4.74948Z" fill="white"/>
</g>
<defs>
<clipPath id="clip0">
<rect width="70" height="70" fill="white"/>
</clipPath>
</defs>
</svg>
